    <svg
                  width="auto"
                  height="50"
                  viewBox="0 0 19 6"
                  fill="none"
                  xmlns="http://www.w3.org/2000/svg"
                >
                  <path
                    d="M1.902 0.934C2.038 0.934 2.166 1.01 2.286 1.162C2.406 1.31 2.466 1.44 2.466 1.552C2.466 1.62 2.434 1.654 2.37 1.654C2.326 1.654 2.258 1.62 2.166 1.552C2.074 1.48 1.98 1.444 1.884 1.444C1.788 1.444 1.636 1.5 1.428 1.612C1.224 1.724 1.122 1.842 1.122 1.966C1.122 2.058 1.306 2.216 1.674 2.44C1.814 2.528 1.94 2.642 2.052 2.782C2.168 2.918 2.226 3.066 2.226 3.226C2.226 3.382 2.116 3.536 1.896 3.688C1.68 3.836 1.426 3.91 1.134 3.91C0.846 3.91 0.59 3.84 0.366 3.7C0.146 3.56 0.036 3.428 0.036 3.304C0.036 3.252 0.048 3.212 0.072 3.184C0.1 3.152 0.134 3.136 0.174 3.136C0.214 3.136 0.27 3.162 0.342 3.214C0.558 3.37 0.782 3.448 1.014 3.448C1.25 3.448 1.42 3.422 1.524 3.37C1.628 3.314 1.68 3.242 1.68 3.154C1.68 3.062 1.622 2.966 1.506 2.866C1.39 2.762 1.262 2.67 1.122 2.59C0.986 2.51 0.86 2.412 0.744 2.296C0.628 2.18 0.57 2.062 0.57 1.942C0.57 1.73 0.736 1.51 1.068 1.282C1.404 1.05 1.682 0.934 1.902 0.934ZM4.86469 1.102C4.88069 1.038 4.89669 0.994 4.91269 0.97C4.92869 0.946 4.96269 0.934 5.01469 0.934C5.07069 0.934 5.13669 0.986 5.21269 1.09C5.29269 1.194 5.33269 1.294 5.33269 1.39C5.33269 1.442 5.24469 1.75 5.06869 2.314C4.89269 2.878 4.75669 3.326 4.66069 3.658C4.61269 3.826 4.54469 3.91 4.45669 3.91C4.40469 3.91 4.36069 3.888 4.32469 3.844C4.28869 3.8 4.27069 3.72 4.27069 3.604C4.27069 3.488 4.31669 3.278 4.40869 2.974C4.24069 3.246 4.05869 3.47 3.86269 3.646C3.66669 3.822 3.48669 3.91 3.32269 3.91C3.16269 3.91 3.01069 3.834 2.86669 3.682C2.72269 3.53 2.65069 3.374 2.65069 3.214C2.65069 2.834 2.76069 2.36 2.98069 1.792C3.20469 1.22 3.39069 0.934 3.53869 0.934C3.61069 0.934 3.67269 0.968 3.72469 1.036C3.78069 1.1 3.80869 1.174 3.80869 1.258C3.80869 1.294 3.75469 1.424 3.64669 1.648C3.53869 1.868 3.43069 2.128 3.32269 2.428C3.21469 2.724 3.16069 2.984 3.16069 3.208C3.16069 3.272 3.18069 3.326 3.22069 3.37C3.26069 3.41 3.30869 3.43 3.36469 3.43C3.51669 3.43 3.69669 3.296 3.90469 3.028C4.11669 2.76 4.30869 2.448 4.48069 2.092C4.65269 1.736 4.78069 1.406 4.86469 1.102ZM7.59136 0.916C7.76336 0.916 7.91136 1.026 8.03536 1.246C8.16336 1.466 8.22736 1.694 8.22736 1.93C8.22736 2.162 8.15936 2.396 8.02336 2.632C7.88736 2.864 7.71936 3.072 7.51936 3.256C7.31936 3.44 7.09736 3.594 6.85336 3.718C6.61336 3.838 6.39136 3.898 6.18736 3.898C6.10736 3.898 6.03136 3.888 5.95936 3.868C5.94336 3.936 5.91536 4.058 5.87536 4.234C5.83536 4.41 5.80136 4.556 5.77336 4.672C5.74536 4.788 5.71336 4.912 5.67736 5.044C5.60536 5.316 5.54136 5.452 5.48536 5.452C5.42936 5.452 5.37136 5.408 5.31136 5.32C5.24736 5.236 5.21536 5.16 5.21536 5.092C5.21536 5.024 5.27936 4.732 5.40736 4.216C5.79136 2.66 5.98336 1.612 5.98336 1.072C5.98336 0.952 6.02736 0.892 6.11536 0.892C6.18736 0.892 6.27336 0.946 6.37336 1.054C6.47736 1.158 6.52936 1.274 6.52936 1.402C6.52936 1.466 6.52136 1.536 6.50536 1.612C6.86136 1.148 7.22336 0.916 7.59136 0.916ZM6.12736 3.43C6.33936 3.43 6.56736 3.358 6.81136 3.214C7.05936 3.07 7.26936 2.88 7.44136 2.644C7.61736 2.404 7.70536 2.166 7.70536 1.93C7.70536 1.598 7.62736 1.432 7.47136 1.432C7.31536 1.432 7.10336 1.566 6.83536 1.834C6.57136 2.102 6.36136 2.45 6.20536 2.878L6.06736 3.43H6.12736ZM8.85459 1.666L8.83659 1.216C8.83659 1.028 8.88059 0.934 8.96859 0.934C9.04459 0.934 9.11659 0.984 9.18459 1.084C9.25659 1.18 9.29259 1.296 9.29259 1.432C9.29259 1.564 9.28859 1.664 9.28059 1.732C9.62859 1.204 9.95859 0.94 10.2706 0.94C10.4666 0.94 10.5646 0.988 10.5646 1.084C10.5646 1.132 10.5426 1.176 10.4986 1.216C10.4546 1.256 10.3846 1.302 10.2886 1.354C10.0766 1.446 9.89659 1.588 9.74859 1.78C9.60459 1.968 9.48659 2.182 9.39459 2.422C9.30259 2.662 9.22859 2.864 9.17259 3.028C9.12059 3.192 9.08059 3.32 9.05259 3.412C9.02459 3.504 8.99259 3.594 8.95659 3.682C8.89259 3.842 8.81859 3.922 8.73459 3.922C8.66659 3.922 8.61059 3.884 8.56659 3.808C8.52659 3.728 8.50659 3.652 8.50659 3.58C8.50659 3.504 8.54059 3.356 8.60859 3.136C8.77259 2.632 8.85459 2.142 8.85459 1.666ZM12.0769 0.934C12.2569 0.934 12.4229 1.026 12.5749 1.21C12.7269 1.39 12.8029 1.554 12.8029 1.702C12.8029 1.846 12.7529 1.994 12.6529 2.146C12.7009 2.206 12.7249 2.258 12.7249 2.302C12.7249 2.414 12.6989 2.606 12.6469 2.878C12.5989 3.15 12.5689 3.328 12.5569 3.412C12.5489 3.496 12.5409 3.564 12.5329 3.616C12.5249 3.664 12.5149 3.712 12.5029 3.76C12.4869 3.86 12.4509 3.91 12.3949 3.91C12.3229 3.91 12.2629 3.848 12.2149 3.724C12.1709 3.596 12.1449 3.432 12.1369 3.232C11.7809 3.684 11.4509 3.91 11.1469 3.91C10.9629 3.91 10.7809 3.832 10.6009 3.676C10.4249 3.516 10.3369 3.352 10.3369 3.184C10.3369 2.944 10.4249 2.648 10.6009 2.296C10.7769 1.94 11.0049 1.624 11.2849 1.348C11.5649 1.072 11.8289 0.934 12.0769 0.934ZM12.3529 1.99C12.3529 1.618 12.2789 1.432 12.1309 1.432C11.9749 1.432 11.7929 1.544 11.5849 1.768C11.3769 1.988 11.2009 2.238 11.0569 2.518C10.9129 2.798 10.8409 3.02 10.8409 3.184C10.8409 3.252 10.8689 3.308 10.9249 3.352C10.9809 3.392 11.0469 3.412 11.1229 3.412C11.3109 3.412 11.5229 3.286 11.7589 3.034C11.9949 2.778 12.1589 2.468 12.2509 2.104C12.2629 2.044 12.2969 2.008 12.3529 1.996V1.99ZM15.0094 0.934C15.1454 0.934 15.2734 1.01 15.3934 1.162C15.5134 1.31 15.5734 1.44 15.5734 1.552C15.5734 1.62 15.5414 1.654 15.4774 1.654C15.4334 1.654 15.3654 1.62 15.2734 1.552C15.1814 1.48 15.0874 1.444 14.9914 1.444C14.8954 1.444 14.7434 1.5 14.5354 1.612C14.3314 1.724 14.2294 1.842 14.2294 1.966C14.2294 2.058 14.4134 2.216 14.7814 2.44C14.9214 2.528 15.0474 2.642 15.1594 2.782C15.2754 2.918 15.3334 3.066 15.3334 3.226C15.3334 3.382 15.2234 3.536 15.0034 3.688C14.7874 3.836 14.5334 3.91 14.2414 3.91C13.9534 3.91 13.6974 3.84 13.4734 3.7C13.2534 3.56 13.1434 3.428 13.1434 3.304C13.1434 3.252 13.1554 3.212 13.1794 3.184C13.2074 3.152 13.2414 3.136 13.2814 3.136C13.3214 3.136 13.3774 3.162 13.4494 3.214C13.6654 3.37 13.8894 3.448 14.1214 3.448C14.3574 3.448 14.5274 3.422 14.6314 3.37C14.7354 3.314 14.7874 3.242 14.7874 3.154C14.7874 3.062 14.7294 2.966 14.6134 2.866C14.4974 2.762 14.3694 2.67 14.2294 2.59C14.0934 2.51 13.9674 2.412 13.8514 2.296C13.7354 2.18 13.6774 2.062 13.6774 1.942C13.6774 1.73 13.8434 1.51 14.1754 1.282C14.5114 1.05 14.7894 0.934 15.0094 0.934ZM18.1941 0.934C18.2581 0.934 18.3261 0.982 18.3981 1.078C18.4741 1.17 18.5121 1.274 18.5121 1.39C18.5121 1.47 18.4301 1.742 18.2661 2.206C18.1021 2.67 17.9901 2.986 17.9301 3.154C17.8741 3.318 17.7961 3.538 17.6961 3.814C17.6001 4.086 17.5061 4.352 17.4141 4.612C17.2141 5.184 16.9141 5.47 16.5141 5.47C16.2861 5.47 16.0681 5.4 15.8601 5.26C15.6521 5.124 15.5481 4.982 15.5481 4.834C15.5481 4.778 15.5741 4.716 15.6261 4.648C15.6741 4.58 15.7161 4.546 15.7521 4.546C15.7881 4.546 15.8461 4.59 15.9261 4.678C16.1581 4.942 16.3561 5.074 16.5201 5.074C16.6441 5.074 16.7561 4.964 16.8561 4.744C16.9561 4.528 17.0501 4.282 17.1381 4.006C17.2301 3.734 17.2801 3.584 17.2881 3.556C17.3001 3.528 17.3121 3.492 17.3241 3.448C17.3401 3.404 17.3541 3.364 17.3661 3.328C17.0821 3.716 16.8021 3.91 16.5261 3.91C16.3581 3.91 16.2021 3.832 16.0581 3.676C15.9181 3.52 15.8481 3.336 15.8481 3.124C15.8481 2.912 15.9001 2.626 16.0041 2.266C16.1081 1.906 16.2301 1.594 16.3701 1.33C16.5101 1.066 16.6241 0.934 16.7121 0.934C16.7841 0.934 16.8501 0.968 16.9101 1.036C16.9741 1.1 17.0061 1.166 17.0061 1.234C17.0061 1.302 16.9541 1.444 16.8501 1.66C16.5261 2.324 16.3641 2.84 16.3641 3.208C16.3641 3.272 16.3841 3.326 16.4241 3.37C16.4641 3.41 16.5121 3.43 16.5681 3.43C16.7121 3.43 16.8841 3.302 17.0841 3.046C17.2841 2.79 17.4681 2.486 17.6361 2.134C17.7761 1.838 17.9221 1.46 18.0741 1C18.0901 0.956 18.1301 0.934 18.1941 0.934Z"
                    fill="white"
                  />
                </svg>